<mxfile host="app.diagrams.net" modified="2020-10-26T21:06:22.154Z" agent="5.0 (Windows NT 10.0; Win64; x64) AppleWebKit/537.36 (KHTML, like Gecko) Chrome/86.0.4240.111 Safari/537.36 Edg/86.0.622.51" etag="Bnf9taqUA9Muaotwq63_" version="13.8.3" type="github">
  <diagram id="l8dNg07YHRR2AjKFmhx5" name="Page-1">
    <mxGraphModel dx="1365" dy="794" grid="1" gridSize="10" guides="1" tooltips="1" connect="1" arrows="1" fold="1" page="1" pageScale="1" pageWidth="827" pageHeight="1169" background="#CCCCCC" math="0" shadow="0">
      <root>
        <mxCell id="0" />
        <mxCell id="1" parent="0" />
        <mxCell id="ggHi2MfkiVqWgaHe4agL-7" value="" style="edgeStyle=orthogonalEdgeStyle;rounded=0;orthogonalLoop=1;jettySize=auto;html=1;strokeColor=#FFFFFF;" edge="1" parent="1" source="ggHi2MfkiVqWgaHe4agL-2" target="ggHi2MfkiVqWgaHe4agL-5">
          <mxGeometry relative="1" as="geometry" />
        </mxCell>
        <mxCell id="ggHi2MfkiVqWgaHe4agL-2" value="Inicio" style="rounded=1;whiteSpace=wrap;html=1;fillColor=#dae8fc;strokeColor=#6c8ebf;" vertex="1" parent="1">
          <mxGeometry x="40" y="110" width="120" height="30" as="geometry" />
        </mxCell>
        <mxCell id="ggHi2MfkiVqWgaHe4agL-3" value="&lt;font style=&quot;font-size: 22px&quot; color=&quot;#ffffff&quot;&gt;&lt;b&gt;Administración&lt;/b&gt;&lt;/font&gt;" style="text;html=1;strokeColor=none;fillColor=none;align=center;verticalAlign=middle;whiteSpace=wrap;rounded=0;" vertex="1" parent="1">
          <mxGeometry width="210" height="70" as="geometry" />
        </mxCell>
        <mxCell id="ggHi2MfkiVqWgaHe4agL-14" value="" style="edgeStyle=orthogonalEdgeStyle;rounded=0;orthogonalLoop=1;jettySize=auto;html=1;strokeColor=#FFFFFF;" edge="1" parent="1" source="ggHi2MfkiVqWgaHe4agL-5" target="ggHi2MfkiVqWgaHe4agL-13">
          <mxGeometry relative="1" as="geometry" />
        </mxCell>
        <mxCell id="ggHi2MfkiVqWgaHe4agL-5" value="Inscripción de un usuario a uno de los cursos ofrecidos." style="shape=document;whiteSpace=wrap;html=1;boundedLbl=1;fillColor=#dae8fc;strokeColor=#6c8ebf;" vertex="1" parent="1">
          <mxGeometry x="45" y="220" width="135" height="100" as="geometry" />
        </mxCell>
        <mxCell id="ggHi2MfkiVqWgaHe4agL-9" value="&lt;font color=&quot;#ffffff&quot;&gt;&lt;span style=&quot;font-size: 22px&quot;&gt;&lt;b&gt;Formación&lt;/b&gt;&lt;/span&gt;&lt;/font&gt;" style="text;html=1;strokeColor=none;fillColor=none;align=center;verticalAlign=middle;whiteSpace=wrap;rounded=0;" vertex="1" parent="1">
          <mxGeometry x="270" width="240" height="70" as="geometry" />
        </mxCell>
        <mxCell id="ggHi2MfkiVqWgaHe4agL-27" value="" style="edgeStyle=orthogonalEdgeStyle;rounded=0;orthogonalLoop=1;jettySize=auto;html=1;strokeColor=#FFFFFF;" edge="1" parent="1" source="ggHi2MfkiVqWgaHe4agL-11" target="ggHi2MfkiVqWgaHe4agL-26">
          <mxGeometry relative="1" as="geometry">
            <Array as="points">
              <mxPoint x="405" y="403" />
              <mxPoint x="433" y="403" />
            </Array>
          </mxGeometry>
        </mxCell>
        <mxCell id="ggHi2MfkiVqWgaHe4agL-11" value="El usuario pasa a recibir formación por medio de la plataforma y por parte de los instructores de manera sincrónica" style="shape=document;whiteSpace=wrap;html=1;boundedLbl=1;fillColor=#dae8fc;strokeColor=#6c8ebf;" vertex="1" parent="1">
          <mxGeometry x="320" y="220" width="170" height="130" as="geometry" />
        </mxCell>
        <mxCell id="ggHi2MfkiVqWgaHe4agL-21" style="edgeStyle=orthogonalEdgeStyle;rounded=0;orthogonalLoop=1;jettySize=auto;html=1;entryX=1;entryY=0.5;entryDx=0;entryDy=0;strokeColor=#FFFFFF;" edge="1" parent="1" source="ggHi2MfkiVqWgaHe4agL-13" target="ggHi2MfkiVqWgaHe4agL-17">
          <mxGeometry relative="1" as="geometry" />
        </mxCell>
        <mxCell id="ggHi2MfkiVqWgaHe4agL-24" style="edgeStyle=orthogonalEdgeStyle;rounded=0;orthogonalLoop=1;jettySize=auto;html=1;entryX=0;entryY=0.5;entryDx=0;entryDy=0;strokeColor=#FFFFFF;" edge="1" parent="1" source="ggHi2MfkiVqWgaHe4agL-13" target="ggHi2MfkiVqWgaHe4agL-18">
          <mxGeometry relative="1" as="geometry" />
        </mxCell>
        <mxCell id="ggHi2MfkiVqWgaHe4agL-13" value="Es valido la inscripción" style="rhombus;whiteSpace=wrap;html=1;fillColor=#f8cecc;strokeColor=#b85450;" vertex="1" parent="1">
          <mxGeometry x="50" y="410" width="137.5" height="80" as="geometry" />
        </mxCell>
        <mxCell id="ggHi2MfkiVqWgaHe4agL-23" style="edgeStyle=orthogonalEdgeStyle;rounded=0;orthogonalLoop=1;jettySize=auto;html=1;entryX=0.418;entryY=0.057;entryDx=0;entryDy=0;entryPerimeter=0;strokeColor=#FFFFFF;" edge="1" parent="1" source="ggHi2MfkiVqWgaHe4agL-17" target="ggHi2MfkiVqWgaHe4agL-22">
          <mxGeometry relative="1" as="geometry">
            <Array as="points">
              <mxPoint x="30" y="700" />
              <mxPoint x="350" y="700" />
            </Array>
          </mxGeometry>
        </mxCell>
        <mxCell id="ggHi2MfkiVqWgaHe4agL-17" value="NO" style="text;html=1;strokeColor=none;fillColor=none;align=center;verticalAlign=middle;whiteSpace=wrap;rounded=0;rotation=0;" vertex="1" parent="1">
          <mxGeometry x="10" y="500" width="40" height="20" as="geometry" />
        </mxCell>
        <mxCell id="ggHi2MfkiVqWgaHe4agL-25" style="edgeStyle=orthogonalEdgeStyle;rounded=0;orthogonalLoop=1;jettySize=auto;html=1;strokeColor=#FFFFFF;entryX=0;entryY=0.25;entryDx=0;entryDy=0;" edge="1" parent="1" source="ggHi2MfkiVqWgaHe4agL-18" target="ggHi2MfkiVqWgaHe4agL-33">
          <mxGeometry relative="1" as="geometry">
            <mxPoint x="260" y="130" as="targetPoint" />
          </mxGeometry>
        </mxCell>
        <mxCell id="ggHi2MfkiVqWgaHe4agL-18" value="SI" style="text;html=1;strokeColor=none;fillColor=none;align=center;verticalAlign=middle;whiteSpace=wrap;rounded=0;" vertex="1" parent="1">
          <mxGeometry x="160" y="500" width="40" height="20" as="geometry" />
        </mxCell>
        <mxCell id="ggHi2MfkiVqWgaHe4agL-22" value="FIN" style="rounded=1;whiteSpace=wrap;html=1;fillColor=#f8cecc;strokeColor=#b85450;" vertex="1" parent="1">
          <mxGeometry x="304" y="710" width="110" height="35" as="geometry" />
        </mxCell>
        <mxCell id="ggHi2MfkiVqWgaHe4agL-28" style="edgeStyle=orthogonalEdgeStyle;rounded=0;orthogonalLoop=1;jettySize=auto;html=1;strokeColor=#FFFFFF;" edge="1" parent="1" source="ggHi2MfkiVqWgaHe4agL-26" target="ggHi2MfkiVqWgaHe4agL-29">
          <mxGeometry relative="1" as="geometry">
            <mxPoint x="320" y="570" as="targetPoint" />
          </mxGeometry>
        </mxCell>
        <mxCell id="ggHi2MfkiVqWgaHe4agL-30" style="edgeStyle=orthogonalEdgeStyle;rounded=0;orthogonalLoop=1;jettySize=auto;html=1;strokeColor=#FFFFFF;" edge="1" parent="1" source="ggHi2MfkiVqWgaHe4agL-26" target="ggHi2MfkiVqWgaHe4agL-31">
          <mxGeometry relative="1" as="geometry">
            <mxPoint x="520" y="560" as="targetPoint" />
          </mxGeometry>
        </mxCell>
        <mxCell id="ggHi2MfkiVqWgaHe4agL-26" value="El alumno cumplió con los talleres requeridos?" style="rhombus;whiteSpace=wrap;html=1;strokeColor=#9673a6;fillColor=#e1d5e7;" vertex="1" parent="1">
          <mxGeometry x="340" y="455" width="185" height="80" as="geometry" />
        </mxCell>
        <mxCell id="ggHi2MfkiVqWgaHe4agL-38" style="edgeStyle=orthogonalEdgeStyle;rounded=0;orthogonalLoop=1;jettySize=auto;html=1;strokeColor=#FFFFFF;" edge="1" parent="1" source="ggHi2MfkiVqWgaHe4agL-29" target="ggHi2MfkiVqWgaHe4agL-37">
          <mxGeometry relative="1" as="geometry">
            <Array as="points">
              <mxPoint x="320" y="590" />
              <mxPoint x="560" y="590" />
              <mxPoint x="560" y="140" />
            </Array>
          </mxGeometry>
        </mxCell>
        <mxCell id="ggHi2MfkiVqWgaHe4agL-29" value="SI" style="text;html=1;strokeColor=none;fillColor=none;align=center;verticalAlign=middle;whiteSpace=wrap;rounded=0;" vertex="1" parent="1">
          <mxGeometry x="300" y="560" width="40" height="20" as="geometry" />
        </mxCell>
        <mxCell id="ggHi2MfkiVqWgaHe4agL-39" style="edgeStyle=orthogonalEdgeStyle;rounded=0;orthogonalLoop=1;jettySize=auto;html=1;strokeColor=#FFFFFF;entryX=1;entryY=0.5;entryDx=0;entryDy=0;" edge="1" parent="1" source="ggHi2MfkiVqWgaHe4agL-31" target="ggHi2MfkiVqWgaHe4agL-33">
          <mxGeometry relative="1" as="geometry">
            <mxPoint x="520" y="120" as="targetPoint" />
            <Array as="points">
              <mxPoint x="530" y="353" />
              <mxPoint x="494" y="353" />
              <mxPoint x="494" y="125" />
            </Array>
          </mxGeometry>
        </mxCell>
        <mxCell id="ggHi2MfkiVqWgaHe4agL-31" value="NO" style="text;html=1;strokeColor=none;fillColor=none;align=center;verticalAlign=middle;whiteSpace=wrap;rounded=0;" vertex="1" parent="1">
          <mxGeometry x="510" y="550" width="40" height="20" as="geometry" />
        </mxCell>
        <mxCell id="ggHi2MfkiVqWgaHe4agL-34" style="edgeStyle=orthogonalEdgeStyle;rounded=0;orthogonalLoop=1;jettySize=auto;html=1;entryX=0.547;entryY=0;entryDx=0;entryDy=0;entryPerimeter=0;strokeColor=#FFFFFF;" edge="1" parent="1" source="ggHi2MfkiVqWgaHe4agL-33" target="ggHi2MfkiVqWgaHe4agL-11">
          <mxGeometry relative="1" as="geometry" />
        </mxCell>
        <mxCell id="ggHi2MfkiVqWgaHe4agL-33" value="Contacto con el instructor asigado" style="rounded=0;whiteSpace=wrap;html=1;fillColor=#f8cecc;strokeColor=#b85450;" vertex="1" parent="1">
          <mxGeometry x="354" y="95" width="120" height="60" as="geometry" />
        </mxCell>
        <mxCell id="ggHi2MfkiVqWgaHe4agL-36" value="&lt;font color=&quot;#ffffff&quot;&gt;&lt;span style=&quot;font-size: 22px&quot;&gt;&lt;b&gt;Administración&lt;/b&gt;&lt;/span&gt;&lt;/font&gt;" style="text;html=1;strokeColor=none;fillColor=none;align=center;verticalAlign=middle;whiteSpace=wrap;rounded=0;" vertex="1" parent="1">
          <mxGeometry x="570" width="240" height="70" as="geometry" />
        </mxCell>
        <mxCell id="ggHi2MfkiVqWgaHe4agL-41" value="" style="edgeStyle=orthogonalEdgeStyle;rounded=0;orthogonalLoop=1;jettySize=auto;html=1;strokeColor=#FFFFFF;" edge="1" parent="1" source="ggHi2MfkiVqWgaHe4agL-37" target="ggHi2MfkiVqWgaHe4agL-40">
          <mxGeometry relative="1" as="geometry" />
        </mxCell>
        <mxCell id="ggHi2MfkiVqWgaHe4agL-37" value="Retroalimentación o comentarios de finalización" style="rounded=0;whiteSpace=wrap;html=1;fillColor=#dae8fc;strokeColor=#6c8ebf;" vertex="1" parent="1">
          <mxGeometry x="630" y="110" width="120" height="60" as="geometry" />
        </mxCell>
        <mxCell id="ggHi2MfkiVqWgaHe4agL-42" style="edgeStyle=orthogonalEdgeStyle;rounded=0;orthogonalLoop=1;jettySize=auto;html=1;strokeColor=#FFFFFF;" edge="1" parent="1" source="ggHi2MfkiVqWgaHe4agL-40" target="ggHi2MfkiVqWgaHe4agL-43">
          <mxGeometry relative="1" as="geometry">
            <mxPoint x="600" y="360" as="targetPoint" />
          </mxGeometry>
        </mxCell>
        <mxCell id="ggHi2MfkiVqWgaHe4agL-44" style="edgeStyle=orthogonalEdgeStyle;rounded=0;orthogonalLoop=1;jettySize=auto;html=1;strokeColor=#FFFFFF;" edge="1" parent="1" source="ggHi2MfkiVqWgaHe4agL-40" target="ggHi2MfkiVqWgaHe4agL-45">
          <mxGeometry relative="1" as="geometry">
            <mxPoint x="760" y="350" as="targetPoint" />
          </mxGeometry>
        </mxCell>
        <mxCell id="ggHi2MfkiVqWgaHe4agL-40" value="Problemas, quejas o sugerencias?" style="rhombus;whiteSpace=wrap;html=1;rounded=0;strokeColor=#6c8ebf;fillColor=#dae8fc;" vertex="1" parent="1">
          <mxGeometry x="620" y="245" width="140" height="80" as="geometry" />
        </mxCell>
        <mxCell id="ggHi2MfkiVqWgaHe4agL-48" style="edgeStyle=orthogonalEdgeStyle;rounded=0;orthogonalLoop=1;jettySize=auto;html=1;entryX=0;entryY=0;entryDx=0;entryDy=0;strokeColor=#FFFFFF;" edge="1" parent="1" source="ggHi2MfkiVqWgaHe4agL-43" target="ggHi2MfkiVqWgaHe4agL-47">
          <mxGeometry relative="1" as="geometry" />
        </mxCell>
        <mxCell id="ggHi2MfkiVqWgaHe4agL-43" value="SI" style="text;html=1;strokeColor=none;fillColor=none;align=center;verticalAlign=middle;whiteSpace=wrap;rounded=0;" vertex="1" parent="1">
          <mxGeometry x="580" y="350" width="40" height="20" as="geometry" />
        </mxCell>
        <mxCell id="ggHi2MfkiVqWgaHe4agL-46" style="edgeStyle=orthogonalEdgeStyle;rounded=0;orthogonalLoop=1;jettySize=auto;html=1;strokeColor=#FFFFFF;entryX=1;entryY=0.5;entryDx=0;entryDy=0;" edge="1" parent="1" source="ggHi2MfkiVqWgaHe4agL-45" target="ggHi2MfkiVqWgaHe4agL-22">
          <mxGeometry relative="1" as="geometry">
            <mxPoint x="770" y="730" as="targetPoint" />
            <Array as="points">
              <mxPoint x="760" y="728" />
            </Array>
          </mxGeometry>
        </mxCell>
        <mxCell id="ggHi2MfkiVqWgaHe4agL-45" value="NO" style="text;html=1;strokeColor=none;fillColor=none;align=center;verticalAlign=middle;whiteSpace=wrap;rounded=0;" vertex="1" parent="1">
          <mxGeometry x="740" y="340" width="40" height="20" as="geometry" />
        </mxCell>
        <mxCell id="ggHi2MfkiVqWgaHe4agL-52" value="" style="edgeStyle=orthogonalEdgeStyle;rounded=0;orthogonalLoop=1;jettySize=auto;html=1;strokeColor=#FFFFFF;" edge="1" parent="1" source="ggHi2MfkiVqWgaHe4agL-47" target="ggHi2MfkiVqWgaHe4agL-51">
          <mxGeometry relative="1" as="geometry" />
        </mxCell>
        <mxCell id="ggHi2MfkiVqWgaHe4agL-47" value="QUEJAS Y SUGENRECIAS" style="rounded=0;whiteSpace=wrap;html=1;fillColor=#e1d5e7;strokeColor=#9673a6;" vertex="1" parent="1">
          <mxGeometry x="600" y="420" width="120" height="60" as="geometry" />
        </mxCell>
        <mxCell id="ggHi2MfkiVqWgaHe4agL-53" style="edgeStyle=orthogonalEdgeStyle;rounded=0;orthogonalLoop=1;jettySize=auto;html=1;strokeColor=#FFFFFF;" edge="1" parent="1" source="ggHi2MfkiVqWgaHe4agL-51" target="ggHi2MfkiVqWgaHe4agL-54">
          <mxGeometry relative="1" as="geometry">
            <mxPoint x="600" y="580" as="targetPoint" />
          </mxGeometry>
        </mxCell>
        <mxCell id="ggHi2MfkiVqWgaHe4agL-56" style="edgeStyle=orthogonalEdgeStyle;rounded=0;orthogonalLoop=1;jettySize=auto;html=1;strokeColor=#FFFFFF;" edge="1" parent="1" source="ggHi2MfkiVqWgaHe4agL-51" target="ggHi2MfkiVqWgaHe4agL-57">
          <mxGeometry relative="1" as="geometry">
            <mxPoint x="700" y="620" as="targetPoint" />
          </mxGeometry>
        </mxCell>
        <mxCell id="ggHi2MfkiVqWgaHe4agL-51" value="Se solucionó?" style="rhombus;whiteSpace=wrap;html=1;rounded=0;strokeColor=#9673a6;fillColor=#e1d5e7;" vertex="1" parent="1">
          <mxGeometry x="620" y="510" width="80" height="80" as="geometry" />
        </mxCell>
        <mxCell id="ggHi2MfkiVqWgaHe4agL-55" style="edgeStyle=orthogonalEdgeStyle;rounded=0;orthogonalLoop=1;jettySize=auto;html=1;entryX=1;entryY=0.5;entryDx=0;entryDy=0;strokeColor=#FFFFFF;" edge="1" parent="1" source="ggHi2MfkiVqWgaHe4agL-54" target="ggHi2MfkiVqWgaHe4agL-22">
          <mxGeometry relative="1" as="geometry">
            <Array as="points">
              <mxPoint x="570" y="580" />
              <mxPoint x="570" y="728" />
            </Array>
          </mxGeometry>
        </mxCell>
        <mxCell id="ggHi2MfkiVqWgaHe4agL-54" value="SI" style="text;html=1;strokeColor=none;fillColor=none;align=center;verticalAlign=middle;whiteSpace=wrap;rounded=0;" vertex="1" parent="1">
          <mxGeometry x="580" y="570" width="40" height="20" as="geometry" />
        </mxCell>
        <mxCell id="ggHi2MfkiVqWgaHe4agL-58" style="edgeStyle=orthogonalEdgeStyle;rounded=0;orthogonalLoop=1;jettySize=auto;html=1;entryX=1;entryY=1;entryDx=0;entryDy=0;strokeColor=#FFFFFF;" edge="1" parent="1" source="ggHi2MfkiVqWgaHe4agL-57" target="ggHi2MfkiVqWgaHe4agL-47">
          <mxGeometry relative="1" as="geometry" />
        </mxCell>
        <mxCell id="ggHi2MfkiVqWgaHe4agL-57" value="NO" style="text;html=1;strokeColor=none;fillColor=none;align=center;verticalAlign=middle;whiteSpace=wrap;rounded=0;" vertex="1" parent="1">
          <mxGeometry x="680" y="610" width="40" height="20" as="geometry" />
        </mxCell>
        <mxCell id="ggHi2MfkiVqWgaHe4agL-59" value="" style="rounded=1;whiteSpace=wrap;html=1;fillColor=#dae8fc;strokeColor=#6c8ebf;" vertex="1" parent="1">
          <mxGeometry x="570" y="790" width="140" height="40" as="geometry" />
        </mxCell>
        <mxCell id="ggHi2MfkiVqWgaHe4agL-60" value="" style="rounded=1;whiteSpace=wrap;html=1;fillColor=#e1d5e7;strokeColor=#9673a6;" vertex="1" parent="1">
          <mxGeometry x="570" y="840" width="140" height="40" as="geometry" />
        </mxCell>
        <mxCell id="ggHi2MfkiVqWgaHe4agL-61" value="" style="rounded=1;whiteSpace=wrap;html=1;fillColor=#f8cecc;strokeColor=#b85450;" vertex="1" parent="1">
          <mxGeometry x="570" y="890" width="140" height="40" as="geometry" />
        </mxCell>
        <mxCell id="ggHi2MfkiVqWgaHe4agL-62" value="Proceso Previamente Elegido (Satisfacción del usuario)." style="text;html=1;strokeColor=none;fillColor=none;align=center;verticalAlign=middle;whiteSpace=wrap;rounded=0;" vertex="1" parent="1">
          <mxGeometry x="430" y="790" width="120" height="50" as="geometry" />
        </mxCell>
        <mxCell id="ggHi2MfkiVqWgaHe4agL-63" value="Procesos de Administración" style="text;html=1;strokeColor=none;fillColor=none;align=center;verticalAlign=middle;whiteSpace=wrap;rounded=0;" vertex="1" parent="1">
          <mxGeometry x="430" y="840" width="120" height="50" as="geometry" />
        </mxCell>
        <mxCell id="ggHi2MfkiVqWgaHe4agL-64" value="Procesos de Administración, tanto física como digitalmente" style="text;html=1;strokeColor=none;fillColor=none;align=center;verticalAlign=middle;whiteSpace=wrap;rounded=0;" vertex="1" parent="1">
          <mxGeometry x="430" y="890" width="120" height="50" as="geometry" />
        </mxCell>
      </root>
    </mxGraphModel>
  </diagram>
</mxfile>
